STARTFONT 2.1
COMMENT https://github.com/pinterior/FMT_FNT.ROM
FONT -Pinterior-Graphics-Medium-R-Normal--16-150-75-75-C-80-JISX0201.1976-0
SIZE 16 75 75
FONTBOUNDINGBOX 8 16 0 -2
STARTPROPERTIES 19
FONTNAME_REGISTRY ""
FOUNDRY "Pinterior"
FAMILY_NAME "Graphics"
WEIGHT_NAME "Medium"
SLANT "R"
SETWIDTH_NAME "Normal"
ADD_STYLE_NAME ""
PIXEL_SIZE 16
POINT_SIZE 150
RESOLUTION_X 75
RESOLUTION_Y 75
SPACING "C"
AVERAGE_WIDTH 80
CHARSET_REGISTRY "JISX0201.1976"
CHARSET_ENCODING "0"
DEFAULT_CHAR 32
FONT_DESCENT 2
FONT_ASCENT 14
_GBDFED_INFO "Edited with gbdfed 1.6."
ENDPROPERTIES
CHARS 95
STARTCHAR 0x0001
ENCODING 1
SWIDTH 480 0
DWIDTH 8 0
BBX 8 16 0 -2
BITMAP
00
78
80
80
70
08
08
F0
22
22
22
3E
22
22
22
00
ENDCHAR
STARTCHAR 0x0002
ENCODING 2
SWIDTH 480 0
DWIDTH 8 0
BBX 8 16 0 -2
BITMAP
00
78
80
80
70
08
08
F0
22
22
14
08
14
22
22
00
ENDCHAR
STARTCHAR 0x0003
ENCODING 3
SWIDTH 480 0
DWIDTH 8 0
BBX 8 16 0 -2
BITMAP
00
F8
80
80
F0
80
80
F8
22
22
14
08
14
22
22
00
ENDCHAR
STARTCHAR 0x0004
ENCODING 4
SWIDTH 480 0
DWIDTH 8 0
BBX 8 16 0 -2
BITMAP
00
F8
80
80
F0
80
80
F8
00
3E
08
08
08
08
08
00
ENDCHAR
STARTCHAR 0x0005
ENCODING 5
SWIDTH 480 0
DWIDTH 8 0
BBX 8 16 0 -2
BITMAP
00
F8
80
80
F0
80
80
F8
1C
22
22
22
2E
2A
1C
00
ENDCHAR
STARTCHAR 0x0006
ENCODING 6
SWIDTH 480 0
DWIDTH 8 0
BBX 8 16 0 -2
BITMAP
00
20
50
50
88
F8
88
88
22
24
28
30
28
24
22
00
ENDCHAR
STARTCHAR 0x0007
ENCODING 7
SWIDTH 480 0
DWIDTH 8 0
BBX 8 16 0 -2
BITMAP
00
F0
88
88
F0
88
88
F0
20
20
20
20
20
20
3E
00
ENDCHAR
STARTCHAR 0x0008
ENCODING 8
SWIDTH 480 0
DWIDTH 8 0
BBX 8 16 0 -2
BITMAP
00
F0
88
88
F0
88
88
F0
1E
20
20
1C
02
02
3C
00
ENDCHAR
STARTCHAR 0x0009
ENCODING 9
SWIDTH 480 0
DWIDTH 8 0
BBX 8 16 0 -2
BITMAP
00
88
88
88
F8
88
88
88
3E
08
08
08
08
08
08
00
ENDCHAR
STARTCHAR 0x000A
ENCODING 10
SWIDTH 480 0
DWIDTH 8 0
BBX 8 16 0 -2
BITMAP
00
80
80
80
80
80
80
F8
00
3E
20
3C
20
20
20
00
ENDCHAR
STARTCHAR 0x000B
ENCODING 11
SWIDTH 480 0
DWIDTH 8 0
BBX 8 16 0 -2
BITMAP
00
88
88
88
F8
88
88
88
22
36
36
2A
2A
22
22
00
ENDCHAR
STARTCHAR 0x000C
ENCODING 12
SWIDTH 480 0
DWIDTH 8 0
BBX 8 16 0 -2
BITMAP
00
70
88
80
80
80
88
70
20
20
20
20
20
20
3E
00
ENDCHAR
STARTCHAR 0x000D
ENCODING 13
SWIDTH 480 0
DWIDTH 8 0
BBX 8 16 0 -2
BITMAP
00
70
88
80
80
80
88
70
3C
22
22
3C
24
22
22
00
ENDCHAR
STARTCHAR 0x000E
ENCODING 14
SWIDTH 480 0
DWIDTH 8 0
BBX 8 16 0 -2
BITMAP
00
78
80
80
70
08
08
F0
1C
22
22
22
22
22
1C
00
ENDCHAR
STARTCHAR 0x000F
ENCODING 15
SWIDTH 480 0
DWIDTH 8 0
BBX 8 16 0 -2
BITMAP
00
78
80
80
70
08
08
F0
08
08
08
08
08
08
08
00
ENDCHAR
STARTCHAR 0x0010
ENCODING 16
SWIDTH 480 0
DWIDTH 8 0
BBX 8 16 0 -2
BITMAP
00
E0
90
88
88
88
90
E0
3E
20
20
3C
20
20
3E
00
ENDCHAR
STARTCHAR 0x0011
ENCODING 17
SWIDTH 480 0
DWIDTH 8 0
BBX 8 16 0 -2
BITMAP
00
E0
90
88
88
88
90
E0
08
18
08
08
08
08
08
00
ENDCHAR
STARTCHAR 0x0012
ENCODING 18
SWIDTH 480 0
DWIDTH 8 0
BBX 8 16 0 -2
BITMAP
00
E0
90
88
88
88
90
E0
1C
22
02
0C
10
20
3E
00
ENDCHAR
STARTCHAR 0x0013
ENCODING 19
SWIDTH 480 0
DWIDTH 8 0
BBX 8 16 0 -2
BITMAP
00
E0
90
88
88
88
90
E0
1C
22
02
1C
02
22
1C
00
ENDCHAR
STARTCHAR 0x0014
ENCODING 20
SWIDTH 480 0
DWIDTH 8 0
BBX 8 16 0 -2
BITMAP
00
E0
90
88
88
88
90
E0
0C
14
14
24
3E
04
04
00
ENDCHAR
STARTCHAR 0x0015
ENCODING 21
SWIDTH 480 0
DWIDTH 8 0
BBX 8 16 0 -2
BITMAP
00
88
C8
C8
A8
98
98
88
22
24
28
30
28
24
22
00
ENDCHAR
STARTCHAR 0x0016
ENCODING 22
SWIDTH 480 0
DWIDTH 8 0
BBX 8 16 0 -2
BITMAP
00
78
80
80
70
08
08
F0
22
32
32
2A
26
26
22
00
ENDCHAR
STARTCHAR 0x0017
ENCODING 23
SWIDTH 480 0
DWIDTH 8 0
BBX 8 16 0 -2
BITMAP
00
F8
80
80
F0
80
80
F8
00
3C
22
3C
22
22
3C
00
ENDCHAR
STARTCHAR 0x0018
ENCODING 24
SWIDTH 480 0
DWIDTH 8 0
BBX 8 16 0 -2
BITMAP
00
70
88
80
80
80
88
70
22
32
32
2A
26
26
22
00
ENDCHAR
STARTCHAR 0x0019
ENCODING 25
SWIDTH 480 0
DWIDTH 8 0
BBX 8 16 0 -2
BITMAP
00
F8
80
80
F0
80
80
F8
22
36
36
2A
2A
22
22
00
ENDCHAR
STARTCHAR 0x001A
ENCODING 26
SWIDTH 480 0
DWIDTH 8 0
BBX 8 16 0 -2
BITMAP
00
78
80
80
70
08
08
F0
3C
22
22
3C
22
22
3C
00
ENDCHAR
STARTCHAR 0x001B
ENCODING 27
SWIDTH 480 0
DWIDTH 8 0
BBX 8 16 0 -2
BITMAP
00
F8
80
80
F0
80
80
F8
1C
22
20
20
20
22
1C
00
ENDCHAR
STARTCHAR 0x001C
ENCODING 28
SWIDTH 480 0
DWIDTH 8 0
BBX 8 16 0 -2
BITMAP
00
00
00
00
00
08
04
FE
04
08
00
00
00
00
00
00
ENDCHAR
STARTCHAR 0x001D
ENCODING 29
SWIDTH 480 0
DWIDTH 8 0
BBX 8 16 0 -2
BITMAP
00
00
00
00
00
20
40
FE
40
20
00
00
00
00
00
00
ENDCHAR
STARTCHAR 0x001E
ENCODING 30
SWIDTH 480 0
DWIDTH 8 0
BBX 8 16 0 -2
BITMAP
00
10
38
54
10
10
10
10
10
10
10
10
10
10
00
00
ENDCHAR
STARTCHAR 0x001F
ENCODING 31
SWIDTH 480 0
DWIDTH 8 0
BBX 8 16 0 -2
BITMAP
00
10
10
10
10
10
10
10
10
10
10
54
38
10
00
00
ENDCHAR
STARTCHAR 0x007F
ENCODING 127
SWIDTH 480 0
DWIDTH 8 0
BBX 8 16 0 -2
BITMAP
00
E0
90
88
88
88
90
E0
20
20
20
20
20
20
3E
00
ENDCHAR
STARTCHAR 0x0080
ENCODING 128
SWIDTH 480 0
DWIDTH 8 0
BBX 8 16 0 -2
BITMAP
00
00
00
00
00
00
00
00
00
00
00
00
00
00
FF
FF
ENDCHAR
STARTCHAR 0x0081
ENCODING 129
SWIDTH 480 0
DWIDTH 8 0
BBX 8 16 0 -2
BITMAP
00
00
00
00
00
00
00
00
00
00
00
00
FF
FF
FF
FF
ENDCHAR
STARTCHAR 0x0082
ENCODING 130
SWIDTH 480 0
DWIDTH 8 0
BBX 8 16 0 -2
BITMAP
00
00
00
00
00
00
00
00
00
00
FF
FF
FF
FF
FF
FF
ENDCHAR
STARTCHAR 0x0083
ENCODING 131
SWIDTH 480 0
DWIDTH 8 0
BBX 8 16 0 -2
BITMAP
00
00
00
00
00
00
00
00
FF
FF
FF
FF
FF
FF
FF
FF
ENDCHAR
STARTCHAR 0x0084
ENCODING 132
SWIDTH 480 0
DWIDTH 8 0
BBX 8 16 0 -2
BITMAP
00
00
00
00
00
00
FF
FF
FF
FF
FF
FF
FF
FF
FF
FF
ENDCHAR
STARTCHAR 0x0085
ENCODING 133
SWIDTH 480 0
DWIDTH 8 0
BBX 8 16 0 -2
BITMAP
00
00
00
00
FF
FF
FF
FF
FF
FF
FF
FF
FF
FF
FF
FF
ENDCHAR
STARTCHAR 0x0086
ENCODING 134
SWIDTH 480 0
DWIDTH 8 0
BBX 8 16 0 -2
BITMAP
00
00
FF
FF
FF
FF
FF
FF
FF
FF
FF
FF
FF
FF
FF
FF
ENDCHAR
STARTCHAR 0x0087
ENCODING 135
SWIDTH 480 0
DWIDTH 8 0
BBX 8 16 0 -2
BITMAP
FF
FF
FF
FF
FF
FF
FF
FF
FF
FF
FF
FF
FF
FF
FF
FF
ENDCHAR
STARTCHAR 0x0088
ENCODING 136
SWIDTH 480 0
DWIDTH 8 0
BBX 8 16 0 -2
BITMAP
80
80
80
80
80
80
80
80
80
80
80
80
80
80
80
80
ENDCHAR
STARTCHAR 0x0089
ENCODING 137
SWIDTH 480 0
DWIDTH 8 0
BBX 8 16 0 -2
BITMAP
C0
C0
C0
C0
C0
C0
C0
C0
C0
C0
C0
C0
C0
C0
C0
C0
ENDCHAR
STARTCHAR 0x008A
ENCODING 138
SWIDTH 480 0
DWIDTH 8 0
BBX 8 16 0 -2
BITMAP
E0
E0
E0
E0
E0
E0
E0
E0
E0
E0
E0
E0
E0
E0
E0
E0
ENDCHAR
STARTCHAR 0x008B
ENCODING 139
SWIDTH 480 0
DWIDTH 8 0
BBX 8 16 0 -2
BITMAP
F0
F0
F0
F0
F0
F0
F0
F0
F0
F0
F0
F0
F0
F0
F0
F0
ENDCHAR
STARTCHAR 0x008C
ENCODING 140
SWIDTH 480 0
DWIDTH 8 0
BBX 8 16 0 -2
BITMAP
F8
F8
F8
F8
F8
F8
F8
F8
F8
F8
F8
F8
F8
F8
F8
F8
ENDCHAR
STARTCHAR 0x008D
ENCODING 141
SWIDTH 480 0
DWIDTH 8 0
BBX 8 16 0 -2
BITMAP
FC
FC
FC
FC
FC
FC
FC
FC
FC
FC
FC
FC
FC
FC
FC
FC
ENDCHAR
STARTCHAR 0x008E
ENCODING 142
SWIDTH 480 0
DWIDTH 8 0
BBX 8 16 0 -2
BITMAP
FE
FE
FE
FE
FE
FE
FE
FE
FE
FE
FE
FE
FE
FE
FE
FE
ENDCHAR
STARTCHAR 0x008F
ENCODING 143
SWIDTH 480 0
DWIDTH 8 0
BBX 8 16 0 -2
BITMAP
10
10
10
10
10
10
10
FF
10
10
10
10
10
10
10
10
ENDCHAR
STARTCHAR 0x0090
ENCODING 144
SWIDTH 480 0
DWIDTH 8 0
BBX 8 16 0 -2
BITMAP
10
10
10
10
10
10
10
FF
00
00
00
00
00
00
00
00
ENDCHAR
STARTCHAR 0x0091
ENCODING 145
SWIDTH 480 0
DWIDTH 8 0
BBX 8 16 0 -2
BITMAP
00
00
00
00
00
00
00
FF
10
10
10
10
10
10
10
10
ENDCHAR
STARTCHAR 0x0092
ENCODING 146
SWIDTH 480 0
DWIDTH 8 0
BBX 8 16 0 -2
BITMAP
10
10
10
10
10
10
10
F0
10
10
10
10
10
10
10
10
ENDCHAR
STARTCHAR 0x0093
ENCODING 147
SWIDTH 480 0
DWIDTH 8 0
BBX 8 16 0 -2
BITMAP
10
10
10
10
10
10
10
1F
10
10
10
10
10
10
10
10
ENDCHAR
STARTCHAR 0x0094
ENCODING 148
SWIDTH 480 0
DWIDTH 8 0
BBX 8 16 0 -2
BITMAP
FF
FF
00
00
00
00
00
00
00
00
00
00
00
00
00
00
ENDCHAR
STARTCHAR 0x0095
ENCODING 149
SWIDTH 480 0
DWIDTH 8 0
BBX 8 16 0 -2
BITMAP
00
00
00
00
00
00
00
FF
00
00
00
00
00
00
00
00
ENDCHAR
STARTCHAR 0x0096
ENCODING 150
SWIDTH 480 0
DWIDTH 8 0
BBX 8 16 0 -2
BITMAP
10
10
10
10
10
10
10
10
10
10
10
10
10
10
10
10
ENDCHAR
STARTCHAR 0x0097
ENCODING 151
SWIDTH 480 0
DWIDTH 8 0
BBX 8 16 0 -2
BITMAP
01
01
01
01
01
01
01
01
01
01
01
01
01
01
01
01
ENDCHAR
STARTCHAR 0x0098
ENCODING 152
SWIDTH 480 0
DWIDTH 8 0
BBX 8 16 0 -2
BITMAP
00
00
00
00
00
00
00
1F
10
10
10
10
10
10
10
10
ENDCHAR
STARTCHAR 0x0099
ENCODING 153
SWIDTH 480 0
DWIDTH 8 0
BBX 8 16 0 -2
BITMAP
00
00
00
00
00
00
00
F0
10
10
10
10
10
10
10
10
ENDCHAR
STARTCHAR 0x009A
ENCODING 154
SWIDTH 480 0
DWIDTH 8 0
BBX 8 16 0 -2
BITMAP
10
10
10
10
10
10
10
1F
00
00
00
00
00
00
00
00
ENDCHAR
STARTCHAR 0x009B
ENCODING 155
SWIDTH 480 0
DWIDTH 8 0
BBX 8 16 0 -2
BITMAP
10
10
10
10
10
10
10
F0
00
00
00
00
00
00
00
00
ENDCHAR
STARTCHAR 0x009C
ENCODING 156
SWIDTH 480 0
DWIDTH 8 0
BBX 8 16 0 -2
BITMAP
00
00
00
00
00
00
00
07
08
08
10
10
10
10
10
10
ENDCHAR
STARTCHAR 0x009D
ENCODING 157
SWIDTH 480 0
DWIDTH 8 0
BBX 8 16 0 -2
BITMAP
00
00
00
00
00
00
00
C0
20
20
10
10
10
10
10
10
ENDCHAR
STARTCHAR 0x009E
ENCODING 158
SWIDTH 480 0
DWIDTH 8 0
BBX 8 16 0 -2
BITMAP
10
10
10
10
10
08
08
07
00
00
00
00
00
00
00
00
ENDCHAR
STARTCHAR 0x009F
ENCODING 159
SWIDTH 480 0
DWIDTH 8 0
BBX 8 16 0 -2
BITMAP
10
10
10
10
10
20
20
C0
00
00
00
00
00
00
00
00
ENDCHAR
STARTCHAR 0x00E0
ENCODING 224
SWIDTH 480 0
DWIDTH 8 0
BBX 8 16 0 -2
BITMAP
00
00
00
00
00
00
FF
00
FF
00
00
00
00
00
00
00
ENDCHAR
STARTCHAR 0x00E1
ENCODING 225
SWIDTH 480 0
DWIDTH 8 0
BBX 8 16 0 -2
BITMAP
10
10
10
10
10
10
1F
10
1F
10
10
10
10
10
10
10
ENDCHAR
STARTCHAR 0x00E2
ENCODING 226
SWIDTH 480 0
DWIDTH 8 0
BBX 8 16 0 -2
BITMAP
10
10
10
10
10
10
FF
10
FF
10
10
10
10
10
10
10
ENDCHAR
STARTCHAR 0x00E3
ENCODING 227
SWIDTH 480 0
DWIDTH 8 0
BBX 8 16 0 -2
BITMAP
10
10
10
10
10
10
F0
10
F0
10
10
10
10
10
10
10
ENDCHAR
STARTCHAR 0x00E4
ENCODING 228
SWIDTH 480 0
DWIDTH 8 0
BBX 8 16 0 -2
BITMAP
FF
FF
FE
FE
FC
FC
F8
F8
F0
F0
E0
E0
C0
C0
80
80
ENDCHAR
STARTCHAR 0x00E5
ENCODING 229
SWIDTH 480 0
DWIDTH 8 0
BBX 8 16 0 -2
BITMAP
80
80
C0
C0
E0
E0
F0
F0
F8
F8
FC
FC
FE
FE
FF
FF
ENDCHAR
STARTCHAR 0x00E6
ENCODING 230
SWIDTH 480 0
DWIDTH 8 0
BBX 8 16 0 -2
BITMAP
FF
FF
7F
7F
3F
3F
1F
1F
0F
0F
07
07
03
03
01
01
ENDCHAR
STARTCHAR 0x00E7
ENCODING 231
SWIDTH 480 0
DWIDTH 8 0
BBX 8 16 0 -2
BITMAP
01
01
03
03
07
07
0F
0F
1F
1F
3F
3F
7F
7F
FF
FF
ENDCHAR
STARTCHAR 0x00E8
ENCODING 232
SWIDTH 480 0
DWIDTH 8 0
BBX 8 16 0 -2
BITMAP
00
10
10
38
38
7C
7C
FE
FE
54
10
10
38
7C
00
00
ENDCHAR
STARTCHAR 0x00E9
ENCODING 233
SWIDTH 480 0
DWIDTH 8 0
BBX 8 16 0 -2
BITMAP
00
6C
6C
FE
FE
FE
FE
FE
7C
7C
38
38
10
10
00
00
ENDCHAR
STARTCHAR 0x00EA
ENCODING 234
SWIDTH 480 0
DWIDTH 8 0
BBX 8 16 0 -2
BITMAP
00
10
10
38
38
7C
7C
FE
7C
7C
38
38
10
10
00
00
ENDCHAR
STARTCHAR 0x00EB
ENCODING 235
SWIDTH 480 0
DWIDTH 8 0
BBX 8 16 0 -2
BITMAP
00
10
38
38
38
54
FE
FE
FE
54
10
10
38
7C
00
00
ENDCHAR
STARTCHAR 0x00EC
ENCODING 236
SWIDTH 480 0
DWIDTH 8 0
BBX 8 16 0 -2
BITMAP
00
38
7C
7C
FE
FE
FE
FE
FE
FE
FE
7C
7C
38
00
00
ENDCHAR
STARTCHAR 0x00ED
ENCODING 237
SWIDTH 480 0
DWIDTH 8 0
BBX 8 16 0 -2
BITMAP
00
38
44
44
82
82
82
82
82
82
82
44
44
38
00
00
ENDCHAR
STARTCHAR 0x00EE
ENCODING 238
SWIDTH 480 0
DWIDTH 8 0
BBX 8 16 0 -2
BITMAP
01
01
02
02
04
04
08
08
10
10
20
20
40
40
80
80
ENDCHAR
STARTCHAR 0x00EF
ENCODING 239
SWIDTH 480 0
DWIDTH 8 0
BBX 8 16 0 -2
BITMAP
80
80
40
40
20
20
10
10
08
08
04
04
02
02
01
01
ENDCHAR
STARTCHAR 0x00F0
ENCODING 240
SWIDTH 480 0
DWIDTH 8 0
BBX 8 16 0 -2
BITMAP
81
81
42
42
24
24
18
18
18
18
24
24
42
42
81
81
ENDCHAR
STARTCHAR 0x00F1
ENCODING 241
SWIDTH 480 0
DWIDTH 8 0
BBX 8 16 0 -2
BITMAP
00
FE
92
92
92
92
92
FE
82
82
82
82
82
86
00
00
ENDCHAR
STARTCHAR 0x00F2
ENCODING 242
SWIDTH 480 0
DWIDTH 8 0
BBX 8 16 0 -2
BITMAP
00
40
40
FC
90
90
7C
50
50
50
FC
10
10
10
00
00
ENDCHAR
STARTCHAR 0x00F3
ENCODING 243
SWIDTH 480 0
DWIDTH 8 0
BBX 8 16 0 -2
BITMAP
00
7E
42
42
42
7E
42
42
7E
42
42
42
86
82
00
00
ENDCHAR
STARTCHAR 0x00F4
ENCODING 244
SWIDTH 480 0
DWIDTH 8 0
BBX 8 16 0 -2
BITMAP
00
FE
82
82
82
82
82
FE
82
82
82
82
82
FE
00
00
ENDCHAR
STARTCHAR 0x00F5
ENCODING 245
SWIDTH 480 0
DWIDTH 8 0
BBX 8 16 0 -2
BITMAP
00
08
08
1C
E8
A8
BE
E4
A4
BE
E4
1C
04
04
00
00
ENDCHAR
STARTCHAR 0x00F6
ENCODING 246
SWIDTH 480 0
DWIDTH 8 0
BBX 8 16 0 -2
BITMAP
00
00
28
28
28
44
44
82
FE
14
14
24
24
4C
00
00
ENDCHAR
STARTCHAR 0x00F7
ENCODING 247
SWIDTH 480 0
DWIDTH 8 0
BBX 8 16 0 -2
BITMAP
00
E4
44
44
E4
55
55
55
55
E4
E5
46
4C
50
00
00
ENDCHAR
STARTCHAR 0x00F8
ENCODING 248
SWIDTH 480 0
DWIDTH 8 0
BBX 8 16 0 -2
BITMAP
00
FE
00
00
00
FE
10
10
10
10
10
10
10
10
00
00
ENDCHAR
STARTCHAR 0x00F9
ENCODING 249
SWIDTH 480 0
DWIDTH 8 0
BBX 8 16 0 -2
BITMAP
00
10
10
FE
10
10
FE
92
92
92
92
10
10
10
00
00
ENDCHAR
STARTCHAR 0x00FA
ENCODING 250
SWIDTH 480 0
DWIDTH 8 0
BBX 8 16 0 -2
BITMAP
00
FE
80
A2
A2
94
94
88
94
94
A2
A2
80
FE
00
00
ENDCHAR
STARTCHAR 0x00FB
ENCODING 251
SWIDTH 480 0
DWIDTH 8 0
BBX 8 16 0 -2
BITMAP
00
F8
AF
AA
AA
FA
AA
AA
AA
FA
02
02
02
06
00
00
ENDCHAR
STARTCHAR 0x00FC
ENCODING 252
SWIDTH 480 0
DWIDTH 8 0
BBX 8 16 0 -2
BITMAP
00
42
42
E2
5F
42
42
42
4A
EA
E2
42
46
42
00
00
ENDCHAR
STARTCHAR 0x00FD
ENCODING 253
SWIDTH 480 0
DWIDTH 8 0
BBX 8 16 0 -2
BITMAP
00
10
10
10
10
10
10
28
28
28
28
44
44
82
00
00
ENDCHAR
STARTCHAR 0x00FE
ENCODING 254
SWIDTH 480 0
DWIDTH 8 0
BBX 8 16 0 -2
BITMAP
55
AA
55
AA
55
AA
55
AA
55
AA
55
AA
55
AA
55
AA
ENDCHAR
ENDFONT
